HIERARCHY
ROOT Hips
{
	OFFSET 0.000000 0.000000 0.000000
	CHANNELS 6 Xposition Yposition Zposition Zrotation Yrotation Xrotation 
	JOINT LowerBack
	{
		OFFSET 0.000000 0.000000 0.000000
		CHANNELS 3 Zrotation Yrotation Xrotation
		JOINT Spine
		{
			OFFSET 0.028270 2.035590 -0.193380
			CHANNELS 3 Zrotation Yrotation Xrotation
			JOINT Spine1
			{
				OFFSET 0.056720 2.048850 -0.042750
				CHANNELS 3 Zrotation Yrotation Xrotation
				JOINT Neck
				{
					OFFSET 0.000000 0.000000 0.000000
					CHANNELS 3 Zrotation Yrotation Xrotation
					JOINT Neck1
					{
						OFFSET -0.054170 1.746240 0.172020
						CHANNELS 3 Zrotation Yrotation Xrotation
						JOINT Head
						{
							OFFSET 0.104070 1.761360 -0.123970
							CHANNELS 3 Zrotation Yrotation Xrotation
							End Site
							{
								OFFSET 0.000000 0.000000 0.000000
							}
						}
					}
				}
				JOINT LeftShoulder
				{
					OFFSET 0.000000 0.000000 0.000000
					CHANNELS 3 Zrotation Yrotation Xrotation
					JOINT LeftArm
					{
						OFFSET 3.362410 1.200890 -0.311210
						CHANNELS 3 Zrotation Yrotation Xrotation
						JOINT LeftForeArm
						{
							OFFSET 4.983000 -0.000000 -0.000000
							CHANNELS 3 Zrotation Yrotation Xrotation
							JOINT LeftHand
							{
								OFFSET 3.483560 -0.000000 -0.000000
								CHANNELS 3 Zrotation Yrotation Xrotation
								JOINT LeftFingerBase
								{
									OFFSET 0.000000 0.000000 0.000000
									CHANNELS 3 Zrotation Yrotation Xrotation
									JOINT LeftHandIndex1
									{
										OFFSET 0.715260 -0.000000 -0.000000
										CHANNELS 3 Zrotation Yrotation Xrotation
										End Site
										{
											OFFSET 0.000000 0.000000 0.000000
										}
									}
								}
								JOINT LThumb
								{
									OFFSET 0.000000 0.000000 0.000000
									CHANNELS 3 Zrotation Yrotation Xrotation
									End Site
									{
										OFFSET 0.000000 0.000000 0.000000
									}
								}
							}
						}
					}
				}
				JOINT RightShoulder
				{
					OFFSET 0.000000 0.000000 0.000000
					CHANNELS 3 Zrotation Yrotation Xrotation
					JOINT RightArm
					{
						OFFSET -3.136600 1.374050 -0.404650
						CHANNELS 3 Zrotation Yrotation Xrotation
						JOINT RightForeArm
						{
							OFFSET -5.241900 -0.000000 -0.000000
							CHANNELS 3 Zrotation Yrotation Xrotation
							JOINT RightHand
							{
								OFFSET -3.444170 -0.000000 -0.000000
								CHANNELS 3 Zrotation Yrotation Xrotation
								JOINT RightFingerBase
								{
									OFFSET 0.000000 0.000000 0.000000
									CHANNELS 3 Zrotation Yrotation Xrotation
									JOINT RightHandIndex1
									{
										OFFSET -0.622530 -0.000000 -0.000000
										CHANNELS 3 Zrotation Yrotation Xrotation
										End Site
										{
											OFFSET 0.000000 0.000000 0.000000
										}
									}
								}
								JOINT RThumb
								{
									OFFSET 0.000000 0.000000 0.000000
									CHANNELS 3 Zrotation Yrotation Xrotation
									End Site
									{
										OFFSET 0.000000 0.000000 0.000000
									}
								}
							}
						}
					}
				}
			}
		}
	}
}
}
MOTION
Frames: 14
Frame Time: 0.008333
0.520316 17.305847 -1.621502 128.206636 -75.431918 -118.200963 -0.852087 0.300859 8.622168 -0.963725 0.548494 -1.890219 -5.984762 0.437838 -1.762307 10.887984 1.436860 -1.519262 -4.599363 -0.374307 1.339140 0.000000 0.000000 0.000000 -4.536634 -2.423310 2.208621 -72.542051 0.922426 11.289476 -2.296825 -34.336452 -0.000297 3.753267 -3.837356 -0.128469 -0.037934 0.056530 -0.000000 0.000000 0.000000 0.000000 0.000000 0.000000 0.000000 21.301001 2.998814 2.200015 64.466317 15.028661 2.126153 3.077909 19.748226 0.007814 -1.800154 10.223037 -0.168407 0.062679 -0.138550 0.000000 0.000000 0.000000 0.000000 0.000000 0.000000 0.000000 
0.519832 17.306328 -1.608355 129.437185 -75.086017 -119.297768 -0.801997 0.362145 8.759338 -0.951804 0.609157 -1.862620 -5.948781 0.498354 -1.751001 10.873330 1.556651 -1.437989 -4.587650 -0.373622 1.357132 0.000000 0.000000 0.000000 -4.599979 -2.364691 2.194390 -72.474976 0.862246 11.332474 -2.279809 -34.621579 -0.000381 3.817941 -3.875892 -0.132065 -0.038456 0.057898 -0.000000 0.000000 0.000000 0.000000 0.000000 0.000000 0.000000 21.252431 3.111301 2.191131 64.488845 15.243366 2.383077 3.076573 19.780172 0.007835 -1.743867 10.216277 -0.163107 0.062167 -0.139002 0.000000 0.000000 0.000000 0.000000 0.000000 0.000000 0.000000 
0.518552 17.306160 -1.594136 130.435067 -74.774278 -120.115569 -0.739646 0.396797 8.848546 -0.933114 0.644491 -1.848880 -5.914015 0.533148 -1.737232 10.859391 1.677783 -1.354403 -4.578075 -0.373106 1.376389 0.000000 0.000000 0.000000 -4.655034 -2.327847 2.182975 -72.415629 0.830603 11.385741 -2.264731 -34.890162 -0.000454 3.882961 -3.921363 -0.135858 -0.039035 0.059230 -0.000000 0.000000 0.000000 0.000000 0.000000 0.000000 0.000000 21.215525 3.203495 2.179925 64.497567 15.476691 2.627767 3.076609 19.776442 0.007880 -1.678672 10.202870 -0.156908 0.061666 -0.139201 0.000000 0.000000 0.000000 0.000000 0.000000 0.000000 0.000000 
0.516677 17.305287 -1.578853 131.259199 -74.520979 -120.714117 -0.641082 0.407235 8.888042 -0.905550 0.655063 -1.845390 -5.882202 0.542922 -1.720704 10.848252 1.793858 -1.268728 -4.571125 -0.372827 1.397090 0.000000 0.000000 0.000000 -4.699545 -2.323264 2.173537 -72.365675 0.827221 11.450023 -2.250481 -35.135138 -0.000523 3.949869 -3.978355 -0.140254 -0.039624 0.060544 -0.000000 0.000000 0.000000 0.000000 0.000000 0.000000 0.000000 21.193334 3.270713 2.167362 64.488081 15.731445 2.863085 3.078841 19.740887 0.007950 -1.607620 10.184985 -0.150211 0.061223 -0.139177 0.000000 0.000000 0.000000 0.000000 0.000000 0.000000 0.000000 
0.514400 17.303796 -1.562790 131.962166 -74.328068 -121.161839 -0.503232 0.399127 8.889933 -0.871875 0.644577 -1.845376 -5.855293 0.531579 -1.701130 10.845365 1.904108 -1.180460 -4.567676 -0.372858 1.419364 0.000000 0.000000 0.000000 -4.726420 -2.351040 2.165653 -72.324194 0.839338 11.535291 -2.237093 -35.340781 -0.000584 4.020743 -4.050855 -0.145448 -0.040248 0.061849 -0.000000 0.000000 0.000000 0.000000 0.000000 0.000000 0.000000 21.194157 3.316375 2.153940 64.458806 16.004541 3.076647 3.082988 19.681103 0.008039 -1.529566 10.163774 -0.142811 0.060783 -0.138979 0.000000 0.000000 0.000000 0.000000 0.000000 0.000000 0.000000 
0.511975 17.301856 -1.546154 132.591861 -74.205589 -121.511379 -0.320475 0.376388 8.859881 -0.831422 0.616898 -1.848210 -5.835357 0.502915 -1.679593 10.856740 2.005641 -1.089572 -4.568269 -0.373223 1.443091 0.000000 0.000000 0.000000 -4.730680 -2.416521 2.159151 -72.290285 0.860224 11.646021 -2.224605 -35.497471 -0.000636 4.096194 -4.139989 -0.151443 -0.040895 0.063120 -0.000000 0.000000 0.000000 0.000000 0.000000 0.000000 0.000000 21.225232 3.338756 2.140978 64.407035 16.293837 3.260659 3.088955 19.602445 0.008141 -1.446030 10.141811 -0.134912 0.060327 -0.138633 0.000000 0.000000 0.000000 0.000000 0.000000 0.000000 0.000000 
0.509676 17.299630 -1.529360 133.169819 -74.153119 -121.796972 -0.094800 0.343062 8.809628 -0.784909 0.576393 -1.852392 -5.823662 0.461286 -1.658120 10.887307 2.088308 -0.995857 -4.573556 -0.373955 1.468176 0.000000 0.000000 0.000000 -4.708531 -2.536713 2.153302 -72.262897 0.897895 11.771622 -2.212283 -35.608065 -0.000678 4.173221 -4.243041 -0.158138 -0.041466 0.064275 -0.000000 0.000000 0.000000 0.000000 0.000000 0.000000 0.000000 21.294837 3.327675 2.130812 64.328710 16.606595 3.426565 3.096904 19.501939 0.008250 -1.366544 10.124662 -0.127513 0.059921 -0.138173 0.000000 0.000000 0.000000 0.000000 0.000000 0.000000 0.000000 
0.507640 17.297246 -1.512581 133.714450 -74.165356 -122.048522 0.167751 0.302577 8.749211 -0.733485 0.526869 -1.856387 -5.820156 0.410526 -1.636910 10.939145 2.156221 -0.899324 -4.582990 -0.374994 1.494386 0.000000 0.000000 0.000000 -4.656760 -2.701436 2.148256 -72.241755 0.934228 11.923771 -2.201219 -35.657751 -0.000709 4.250563 -4.356911 -0.165334 -0.042023 0.065312 -0.000000 0.000000 0.000000 0.000000 0.000000 0.000000 0.000000 21.401507 3.290528 2.122854 64.228205 16.931812 3.550551 3.105943 19.387432 0.008357 -1.288091 10.113292 -0.120314 0.059483 -0.137635 0.000000 0.000000 0.000000 0.000000 0.000000 0.000000 0.000000 
0.505695 17.294908 -1.496014 134.238314 -74.231192 -122.284127 0.457555 0.258558 8.684385 -0.679026 0.472344 -1.859547 -5.824448 0.354686 -1.616408 11.012545 2.202100 -0.800589 -4.596192 -0.376314 1.521413 0.000000 0.000000 0.000000 -4.574529 -2.916464 2.143059 -72.226726 0.973091 12.093214 -2.191241 -35.650052 -0.000724 4.322878 -4.474076 -0.172631 -0.042507 0.066153 -0.000000 0.000000 0.000000 0.000000 0.000000 0.000000 0.000000 21.544689 3.221311 2.117962 64.107059 17.273012 3.639728 3.116051 19.254745 0.008461 -1.219296 10.112964 -0.114115 0.059087 -0.137055 0.000000 0.000000 0.000000 0.000000 0.000000 0.000000 0.000000 
0.504025 17.292657 -1.479902 134.730390 -74.346735 -122.490443 0.766635 0.209916 8.613628 -0.620531 0.413524 -1.864766 -5.834612 0.294392 -1.594498 11.106203 2.242041 -0.702042 -4.611271 -0.377721 1.548275 0.000000 0.000000 0.000000 -4.459880 -3.142644 2.139100 -72.218403 0.971167 12.308120 -2.185583 -35.557997 -0.000713 4.387938 -4.585760 -0.179628 -0.043147 0.066876 -0.000000 0.000000 0.000000 0.000000 0.000000 0.000000 0.000000 21.712841 3.140287 2.112528 63.977292 17.606289 3.646191 3.125327 19.117669 0.008549 -1.149636 10.122261 -0.107916 0.058555 -0.136450 0.000000 0.000000 0.000000 0.000000 0.000000 0.000000 0.000000 
0.502035 17.290761 -1.463774 135.234063 -74.514228 -122.695599 1.107548 0.160674 8.521602 -0.553956 0.354961 -1.878789 -5.850153 0.233910 -1.575855 11.212729 2.248808 -0.602306 -4.628110 -0.379289 1.575767 0.000000 0.000000 0.000000 -4.328733 -3.433687 2.133221 -72.217722 0.998627 12.510577 -2.179738 -35.431686 -0.000687 4.435162 -4.685907 -0.185527 -0.043524 0.067236 -0.000000 0.000000 0.000000 0.000000 0.000000 0.000000 0.000000 21.900386 3.015704 2.111293 63.834451 17.954494 3.629157 3.136434 18.952713 0.008641 -1.105629 10.148964 -0.104218 0.058273 -0.135844 0.000000 0.000000 0.000000 0.000000 0.000000 0.000000 0.000000 
0.499948 17.289235 -1.448248 135.701117 -74.683520 -122.882416 1.433009 0.113136 8.432816 -0.491033 0.297941 -1.891387 -5.867713 0.175039 -1.555085 11.330450 2.252568 -0.504158 -4.644853 -0.380830 1.602645 0.000000 0.000000 0.000000 -4.172447 -3.717942 2.127940 -72.220883 0.977746 12.748671 -2.179151 -35.227159 -0.000628 4.463112 -4.761917 -0.189726 -0.044076 0.067430 -0.000000 0.000000 0.000000 0.000000 0.000000 0.000000 0.000000 22.096447 2.890029 2.107920 63.697588 18.285734 3.519846 3.145419 18.780582 0.008706 -1.067833 10.188992 -0.101118 0.057878 -0.135311 0.000000 0.000000 0.000000 0.000000 0.000000 0.000000 0.000000 
0.497412 17.288236 -1.433334 136.144339 -74.838775 -123.064587 1.735145 0.069796 8.346656 -0.433379 0.244971 -1.903189 -5.886310 0.120287 -1.533929 11.453949 2.246187 -0.407275 -4.661245 -0.382364 1.629158 0.000000 0.000000 0.000000 -3.999219 -4.009234 2.122396 -72.225390 0.934967 12.994191 -2.182448 -34.969407 -0.000540 4.464533 -4.807178 -0.191525 -0.044659 0.067371 -0.000000 0.000000 0.000000 0.000000 0.000000 0.000000 0.000000 22.295948 2.756715 2.103734 63.570073 18.605626 3.341610 3.152649 18.591898 0.008747 -1.048013 10.244716 -0.099820 0.057504 -0.134886 0.000000 0.000000 0.000000 0.000000 0.000000 0.000000 0.000000 
0.494320 17.287849 -1.419061 136.579319 -74.966542 -123.262191 2.007765 0.031931 8.265729 -0.382017 0.197547 -1.913751 -5.904615 0.071179 -1.512464 11.577850 2.233902 -0.312667 -4.676586 -0.383842 1.655055 0.000000 0.000000 0.000000 -3.815096 -4.296692 2.116804 -72.229162 0.870542 13.238876 -2.189746 -34.666635 -0.000424 4.436217 -4.816386 -0.190726 -0.045280 0.067066 -0.000000 0.000000 0.000000 0.000000 0.000000 0.000000 0.000000 22.490566 2.623234 2.098091 63.458352 18.908735 3.096028 3.157628 18.386924 0.008756 -1.048264 10.314908 -0.100521 0.057161 -0.134594 0.000000 0.000000 0.000000 0.000000 0.000000 0.000000 0.000000 
